<svg xmlns="http://www.w3.org/2000/svg" viewBox="0 0 106.53 82.74"><defs><style>.cls-1,.cls-4{fill:#a7b8d0;}.cls-2{opacity:0.7;}.cls-3{fill:#be9ac8;}.cls-4{font-size:18.82px;font-family:Ubuntu-Medium, Ubuntu;font-weight:500;letter-spacing:-0.03em;}.cls-5{font-size:6.84px;fill:#fff;font-family:Ubuntu-Light, Ubuntu;font-weight:300;letter-spacing:0.05em;}.cls-6{letter-spacing:0.02em;}</style></defs><g id="Capa_2" data-name="Capa 2"><g id="Capa_1-2" data-name="Capa 1"><path class="cls-1" d="M2.15,38.84a16.23,16.23,0,0,1,15.42-4.53C23,35.58,28,39.14,33.82,38.09a38.73,38.73,0,0,0,8.87-3A55.72,55.72,0,0,0,51,30.48,39.09,39.09,0,0,0,63.21,17.72a29.19,29.19,0,0,0,3.37-8.59c.55-2.66.4-5.76-1.74-7.72-4.76-4.36-9.85,2.48-12.36,6A54.29,54.29,0,0,0,44.86,23.5a89.82,89.82,0,0,0-2.18,9,41.23,41.23,0,0,0-1.15,8.18c0,2.5,1.11,5.31,3.72,6.1s5.1-1,7-2.58c4.36-3.64,7.37-8.63,11.88-12.11.86-.65,1.73-1.3,2.64-1.88S66.79,28.47,66,29a32.21,32.21,0,0,0-4.88,3.74c-2.07,2-3.87,4.18-5.76,6.31a27.46,27.46,0,0,1-6.08,5.56,4.94,4.94,0,0,1-3.38.89,3.77,3.77,0,0,1-2.61-2.6c-.8-2.33-.13-5,.27-7.38.48-2.79,1-5.58,1.75-8.32a59.85,59.85,0,0,1,6.27-15.81,42.52,42.52,0,0,1,4.83-6.72C58,2.92,60.3.67,62.8,1.75s2.91,4.34,2.45,6.77a27.26,27.26,0,0,1-3.15,8.26A37.18,37.18,0,0,1,50.6,29.05a49.32,49.32,0,0,1-16.21,7.46c-5.52,1.32-10.33-1.87-15.46-3.32A18,18,0,0,0,4.1,35.34a17.53,17.53,0,0,0-3,2.49c-.63.67.38,1.68,1,1Z"/><path class="cls-1" d="M69.94,16.83a3.66,3.66,0,0,0-1.71-2.65,3.88,3.88,0,0,0-3.06.15,3.06,3.06,0,0,0-1.83,3c.09,1.61,1,2.93,1.81,4.28A30.22,30.22,0,0,1,68.37,31c.56,3,.72,6.37-1,9-.76,1.19-2.08,2.33-3.59,1.94S62,39.56,62.06,38.17a10.69,10.69,0,0,1,4.45-7.81,26,26,0,0,1,8.95-4A42.1,42.1,0,0,1,92,25.2a27.6,27.6,0,0,0,6.08.51,9.61,9.61,0,0,0,7.61-5.25c.41-.82-.82-1.54-1.23-.72a8.2,8.2,0,0,1-7.33,4.59,42.94,42.94,0,0,1-5.52-.61,44.32,44.32,0,0,0-5.4-.3,43.28,43.28,0,0,0-10.5,1.38,29.88,29.88,0,0,0-9.16,3.78A13.16,13.16,0,0,0,61,35.78c-.72,2.5-.75,6.79,2.4,7.62s5.34-2.15,6.18-4.71c1-2.95.57-6.21-.1-9.18A38.1,38.1,0,0,0,67.87,24a52.94,52.94,0,0,0-2.56-5,3.34,3.34,0,0,1-.48-2.41,2,2,0,0,1,1.72-1.21,2,2,0,0,1,1.16.12c.55.32.71,1.15.85,1.7a.72.72,0,0,0,1.38-.38Z"/><g class="cls-2"><path class="cls-3" d="M96.42,21.85a.72.72,0,0,0,0-1.43.72.72,0,0,0,0,1.43Z"/></g><g class="cls-2"><path class="cls-3" d="M38.08,34.58a.72.72,0,0,0,0-1.43.72.72,0,0,0,0,1.43Z"/></g><g class="cls-2"><path class="cls-3" d="M18.13,36.58a.72.72,0,0,0,0-1.43.72.72,0,0,0,0,1.43Z"/></g><g class="cls-2"><path class="cls-3" d="M29.5,30.9a.72.72,0,0,0,0-1.43.72.72,0,0,0,0,1.43Z"/></g><g class="cls-2"><path class="cls-3" d="M92.31,23.19a.72.72,0,0,0,0-1.43.72.72,0,0,0,0,1.43Z"/></g><g class="cls-2"><path class="cls-3" d="M14.31,34.91a.36.36,0,0,0,0-.71.36.36,0,0,0,0,.71Z"/></g><g class="cls-2"><path class="cls-3" d="M87.17,22.83a.36.36,0,0,0,0-.71.36.36,0,0,0,0,.71Z"/></g><g class="cls-2"><path class="cls-3" d="M81.9,29.94a.36.36,0,0,0,0-.71.36.36,0,0,0,0,.71Z"/></g><g class="cls-2"><path class="cls-3" d="M77.21,29.68a1.43,1.43,0,0,0,0-2.85,1.43,1.43,0,0,0,0,2.85Z"/></g><g class="cls-2"><path class="cls-3" d="M36.67,31a1.43,1.43,0,0,0,0-2.85,1.43,1.43,0,0,0,0,2.85Z"/></g><g class="cls-2"><path class="cls-3" d="M82.44,21.3a1.43,1.43,0,0,0,0-2.85,1.43,1.43,0,0,0,0,2.85Z"/></g><path class="cls-1" d="M63.16,16.16c-1,1.66-.27,3.71.42,5.34.79,1.87,1.84,3.62,2.49,5.55a24.36,24.36,0,0,1,1.24,11.38c-.22,1.28-.66,3.09-2.08,3.53-.88.27-.5,1.65.38,1.38,3.23-1,3.4-5.61,3.3-8.34A28.52,28.52,0,0,0,66,23.25a26.45,26.45,0,0,1-1.51-3.4,3.58,3.58,0,0,1-.06-3,.72.72,0,0,0-1.24-.72Z"/><path class="cls-1" d="M59.08.8a19.09,19.09,0,0,0-7.63,6.54,39.05,39.05,0,0,0-5.26,9.36,75,75,0,0,0-4.28,18.52c-.13,1.26-.24,2.53-.25,3.8a7.34,7.34,0,0,0,.19,2.24c.13.43.82.25.69-.19a6.35,6.35,0,0,1-.17-1.84c0-1,.07-2.08.17-3.12a75.82,75.82,0,0,1,1.3-8.46c1.33-6.46,3.24-12.9,7.07-18.35a33.43,33.43,0,0,1,3.81-4.73,15.52,15.52,0,0,1,4.72-3.16c.42-.18.06-.8-.36-.61Z"/><path class="cls-1" d="M63.05,19.37a26.12,26.12,0,0,0,1.66,3.7l1.12-.86A2.5,2.5,0,0,1,65,20.63l-.71.71a5.14,5.14,0,0,1,.49.79c.23.37.46.74.67,1.12.41.72.79,1.45,1.16,2.2l1-1a4.22,4.22,0,0,1-1.41-1.77l-1.3.55a19.33,19.33,0,0,1,2.9,8.82c.09.9,1.44.93,1.43,0v-.82l-1.4.19a22.94,22.94,0,0,1,0,6.41c-.12.91,1.3.9,1.42,0a24.13,24.13,0,0,0-.09-6.79c-.12-.8-1.4-.6-1.4.19v.82h1.43a20.94,20.94,0,0,0-3.1-9.54c-.41-.64-1.62-.24-1.3.55A5.83,5.83,0,0,0,66.9,25.7c.63.46,1.26-.4,1-1-.5-1-1-2-1.62-3-.43-.71-.93-1.91-1.93-1.82-.35,0-.75.3-.71.71a4,4,0,0,0,1.2,2.59.71.71,0,0,0,1.12-.86A23.11,23.11,0,0,1,64.43,19c-.31-.86-1.69-.49-1.38.38Z"/><path class="cls-1" d="M48.75,14.39a.72.72,0,0,0,0-1.43.72.72,0,0,0,0,1.43Z"/><path class="cls-1" d="M49.4,14.05a8.64,8.64,0,0,0,.89-2A.72.72,0,0,0,49,11.46,44.41,44.41,0,0,0,45.46,19a.7.7,0,0,0,.49.87.72.72,0,0,0,.88-.49,42.39,42.39,0,0,1,3.38-7.22l-1.3-.55a7,7,0,0,1-.74,1.7.71.71,0,0,0,1.23.72Z"/><path class="cls-1" d="M55.5,2.94a35.32,35.32,0,0,0-3.79,4.31A5.65,5.65,0,0,0,51,8.4a7.94,7.94,0,0,1-.6.91c-.09.17-.14.36-.24.53a2.64,2.64,0,0,1-.35.4,2.63,2.63,0,0,0-.35.52c0,.09-.24.32-.05.25l.8,1.05,1.51-2.72a.71.71,0,0,0-1.23-.72L49,11.34c-.27.49.2,1.28.81,1a1.52,1.52,0,0,0,.86-.81c.19-.37.51-.6.72-1,.09-.16.15-.35.23-.52A2.67,2.67,0,0,1,52,9.62c.28-.36.38-.8.63-1.17A29.91,29.91,0,0,1,56.5,4c.67-.64-.34-1.65-1-1Z"/><path class="cls-1" d="M45.52,19.51a15.27,15.27,0,0,0-1.29,3.14q-.45,1.86-.84,3.72c-.51,2.42-.92,4.86-1.34,7.31-.15.89,1.23,1.28,1.38.38.4-2.36.79-4.71,1.28-7,.24-1.15.49-2.3.77-3.45a15.45,15.45,0,0,1,1.27-3.33c.4-.82-.82-1.54-1.23-.72Z"/><text class="cls-4" transform="translate(0 68.72)">Lucía<tspan class="cls-3" x="42.23" y="0">Serrano</tspan></text><text class="cls-5" transform="translate(13.6 81.4)">DISEÑO Y DESARROL<tspan class="cls-6" x="70.53" y="0">L</tspan><tspan x="74.08" y="0">O</tspan></text></g></g></svg>